<?xml version="1.0" standalone="no"?>
<!DOCTYPE svg PUBLIC "-//W3C//DTD SVG 20010904//EN"
 "http://www.w3.org/TR/2001/REC-SVG-20010904/DTD/svg10.dtd">
<svg version="1.0" xmlns="http://www.w3.org/2000/svg"
 width="2048.000000pt" height="2048.000000pt" viewBox="0 0 2048.000000 2048.000000"
 preserveAspectRatio="xMidYMid meet">

<g transform="translate(0.000000,2048.000000) scale(0.100000,-0.100000)"
fill="#000000" stroke="none">
<path d="M9771 20469 c-1399 -64 -2765 -412 -4016 -1023 -1779 -870 -3264
-2228 -4287 -3921 -1097 -1818 -1599 -3934 -1438 -6070 256 -3399 2197 -6446
5180 -8133 490 -277 1119 -562 1634 -742 176 -61 249 -74 371 -67 222 14 374
114 452 298 27 63 28 66 31 334 2 149 1 608 -3 1021 l-7 751 -132 -23 c-373
-63 -660 -88 -1011 -88 -316 1 -499 16 -735 64 -527 106 -901 305 -1203 639
-124 137 -267 372 -332 546 -94 247 -302 626 -501 912 -180 258 -390 484 -534
573 -204 127 -291 190 -377 275 -217 214 -189 352 83 411 122 26 379 24 511
-4 344 -74 638 -251 948 -573 143 -148 219 -246 373 -479 200 -304 339 -470
523 -625 295 -247 641 -398 1024 -445 130 -16 419 -14 560 5 256 34 510 103
763 206 94 39 102 45 102 77 0 58 65 337 111 478 57 173 159 388 246 519 78
117 107 153 204 252 l80 82 -33 5 c-18 3 -105 15 -193 27 -1107 144 -1971 435
-2641 890 -350 238 -703 583 -939 920 -578 823 -865 1941 -842 3276 7 409 34
629 117 968 152 621 426 1138 892 1688 l32 37 -37 108 c-255 755 -214 1676
113 2529 l31 82 67 8 c37 4 122 7 188 6 597 -7 1469 -357 2387 -956 135 -88
173 -108 195 -104 15 2 117 27 227 55 1261 321 2691 368 4017 131 219 -39 398
-78 649 -141 l207 -52 171 113 c798 521 1531 845 2122 937 125 20 415 24 483
8 l39 -9 49 -135 c116 -314 200 -669 240 -1015 17 -148 17 -637 0 -780 -30
-246 -77 -459 -144 -663 -36 -109 -39 -124 -26 -140 8 -9 45 -52 82 -95 36
-43 111 -137 165 -210 432 -581 673 -1199 763 -1962 21 -174 17 -928 -5 -1175
-51 -554 -138 -994 -281 -1425 -474 -1419 -1497 -2305 -3131 -2709 -311 -77
-663 -142 -1000 -186 -88 -11 -175 -23 -193 -26 l-33 -5 99 -103 c274 -285
474 -738 546 -1236 38 -262 39 -333 33 -1898 -4 -1283 -3 -1533 9 -1590 39
-190 165 -320 354 -368 50 -13 93 -15 190 -11 109 4 138 10 225 40 654 227
1321 539 1915 895 2109 1265 3712 3275 4473 5607 271 828 425 1644 489 2575
16 236 16 1000 0 1230 -99 1412 -425 2655 -1011 3855 -758 1551 -1863 2858
-3263 3861 -941 674 -2018 1193 -3138 1513 -1044 298 -2183 430 -3279 380z"/>
</g>
</svg>
