<?xml version="1.0" standalone="no"?>
<!DOCTYPE svg PUBLIC "-//W3C//DTD SVG 20010904//EN"
 "http://www.w3.org/TR/2001/REC-SVG-20010904/DTD/svg10.dtd">
<svg version="1.0" xmlns="http://www.w3.org/2000/svg"
 width="662.000000pt" height="377.000000pt" viewBox="0 0 662.000000 377.000000"
 preserveAspectRatio="xMidYMid meet">

<g transform="translate(0.000000,377.000000) scale(0.100000,-0.100000)"
fill="#000000" stroke="none">
<path d="M3056 3578 c-31 -54 -104 -225 -147 -346 l-34 -92 -68 -26 c-87 -33
-116 -32 -207 6 -189 81 -328 130 -366 130 -26 0 -52 -22 -177 -145 -140 -137
-147 -146 -147 -184 0 -38 43 -150 130 -337 54 -116 54 -116 27 -176 -14 -29
-30 -65 -36 -80 -6 -16 -17 -28 -24 -28 -32 0 -388 -153 -434 -187 l-33 -24 0
-209 0 -209 35 -28 c19 -16 51 -35 72 -42 33 -11 120 -47 238 -96 17 -7 52
-19 78 -26 58 -17 66 -25 102 -111 l28 -67 -46 -113 c-25 -62 -59 -147 -77
-188 -34 -79 -60 -156 -60 -178 0 -7 68 -81 150 -164 l150 -151 50 6 c53 6
121 32 305 114 66 29 132 53 148 53 15 0 58 -12 95 -26 l68 -27 39 -96 c84
-209 152 -347 178 -366 17 -12 63 -15 232 -15 237 0 220 -6 264 85 33 71 151
365 151 379 0 15 136 68 175 68 25 0 103 -29 260 -97 84 -36 175 -65 206 -65
35 0 40 5 191 157 127 127 138 141 138 175 0 39 -24 98 -145 363 -38 83 -38
87 -3 170 l33 78 105 39 c146 54 309 127 348 155 l32 24 0 208 c0 258 21 230
-245 334 -77 30 -158 60 -180 68 -54 18 -67 33 -99 110 -27 64 -27 68 -13 110
9 24 25 63 36 86 12 23 21 48 21 56 0 7 4 17 9 22 19 21 84 202 88 245 l4 45
-135 137 c-141 142 -161 158 -196 158 -28 0 -135 -39 -260 -95 -58 -26 -115
-49 -128 -52 -12 -3 -25 -9 -28 -14 -10 -16 -72 -9 -141 16 l-68 26 -44 107
c-58 141 -159 344 -179 360 -11 9 -74 12 -228 12 l-213 0 -25 -42z m461 -1131
c173 -61 313 -205 375 -386 18 -54 23 -87 22 -181 0 -172 -41 -274 -162 -401
-121 -129 -230 -178 -412 -186 -71 -4 -137 -1 -170 6 -154 33 -333 172 -402
313 -57 116 -63 142 -63 273 1 129 10 166 74 293 66 132 240 258 401 292 82
17 256 5 337 -23z"/>
</g>
</svg>
